<?xml version="1.0" encoding="UTF-8" standalone="no"?>
<svg
   width="197.814"
   height="197.81799"
   viewBox="0 0 197.814 197.81799"
   version="1.1"
   id="svg1"
   sodipodi:docname="hatenablog-logo2.svg"
   inkscape:version="1.3.2 (091e20e, 2023-11-25, custom)"
   xmlns:inkscape="http://www.inkscape.org/namespaces/inkscape"
   xmlns:sodipodi="http://sodipodi.sourceforge.net/DTD/sodipodi-0.dtd"
   xmlns="http://www.w3.org/2000/svg"
   xmlns:svg="http://www.w3.org/2000/svg">
  <defs
     id="defs1" />
  <sodipodi:namedview
     id="namedview1"
     pagecolor="#ffffff"
     bordercolor="#000000"
     borderopacity="0.25"
     inkscape:showpageshadow="2"
     inkscape:pageopacity="0.0"
     inkscape:pagecheckerboard="0"
     inkscape:deskcolor="#d1d1d1"
     inkscape:zoom="2.71"
     inkscape:cx="99.077491"
     inkscape:cy="99.077491"
     inkscape:window-width="1920"
     inkscape:window-height="1009"
     inkscape:window-x="2552"
     inkscape:window-y="-8"
     inkscape:window-maximized="1"
     inkscape:current-layer="svg1" />
  <path
     fill="#333333"
     d="M 98.906,197.818 C 44.369,197.818 0,153.451 0,98.909 0,44.372 44.369,0 98.906,0 c 54.545,0 98.908,44.372 98.908,98.909 0,54.542 -44.363,98.909 -98.908,98.909 z m 0,-185.238 c -47.601,0 -86.33,38.723 -86.33,86.329 0,47.605 38.729,86.332 86.33,86.332 47.61,0 86.338,-38.727 86.338,-86.332 0,-47.606 -38.728,-86.329 -86.338,-86.329 z m 11.521,37.489 c -4.832,-9.785 -7.783,-19.3 -9.273,-24.845 v 70.055 c 2.447,0.917 4.197,3.257 4.197,6.021 0,3.559 -2.887,6.442 -6.443,6.442 -3.56,0 -6.443,-2.885 -6.443,-6.442 0,-2.896 1.925,-5.317 4.558,-6.131 V 25.15 C 95.538,30.681 92.585,40.242 87.73,50.069 80.159,65.383 70.721,78.892 70.721,78.892 l 6.036,82.598 c 0,0 5.736,6.401 22.31,6.41 h 0.023 c 16.573,-0.009 22.312,-6.41 22.312,-6.41 l 6.035,-82.598 c -0.003,0 -9.441,-13.508 -17.01,-28.823 z"
     id="path1" />
</svg>
