<?xml version="1.0" encoding="UTF-8" standalone="no"?>
<svg
   version="1.1"
   x="0px"
   y="0px"
   viewBox="0 0 81.859998 81.859997"
   xml:space="preserve"
   id="svg2"
   sodipodi:docname="zenn.svg"
   width="81.860001"
   height="81.860001"
   inkscape:version="1.3.2 (091e20e, 2023-11-25, custom)"
   xmlns:inkscape="http://www.inkscape.org/namespaces/inkscape"
   xmlns:sodipodi="http://sodipodi.sourceforge.net/DTD/sodipodi-0.dtd"
   xmlns="http://www.w3.org/2000/svg"
   xmlns:svg="http://www.w3.org/2000/svg"><defs
   id="defs2" /><sodipodi:namedview
   id="namedview2"
   pagecolor="#ffffff"
   bordercolor="#000000"
   borderopacity="0.25"
   inkscape:showpageshadow="2"
   inkscape:pageopacity="0.0"
   inkscape:pagecheckerboard="0"
   inkscape:deskcolor="#d1d1d1"
   inkscape:zoom="9.2072477"
   inkscape:cx="41.163224"
   inkscape:cy="41.108919"
   inkscape:window-width="1920"
   inkscape:window-height="1009"
   inkscape:window-x="2552"
   inkscape:window-y="-8"
   inkscape:window-maximized="1"
   inkscape:current-layer="svg2" />
<g
   fill="#3ea8ff"
   id="g2"
   transform="translate(-2.9992223,-2.2199997)">
	<path
   class="st0"
   d="m 3.9,83.3 h 17 c 0.9,0 1.7,-0.5 2.2,-1.2 L 69.9,5.2 C 70.5,4.2 69.8,3 68.6,3 H 52.5 C 51.7,3 51,3.4 50.6,4.1 L 3.1,81.9 c -0.3,0.6 0.1,1.4 0.8,1.4 z"
   id="path1" />
	<path
   class="st0"
   d="M 62.5,82.1 84.6,46.6 c 0.7,-1.1 -0.1,-2.5 -1.4,-2.5 h -16 c -0.6,0 -1.2,0.3 -1.5,0.8 L 43,81.2 c -0.6,0.9 0.1,2.1 1.2,2.1 h 16.3 c 0.8,0 1.6,-0.4 2,-1.2 z"
   id="path2" />
</g>
</svg>
